<svg>

<symbol id="home" width="16" height="16" viewBox="0 0 16 16" fill="none" xmlns="http://www.w3.org/2000/svg">
<path fill-rule="evenodd" clip-rule="evenodd" d="M7.59087 0.807088C7.83161 0.619846 8.16872 0.619846 8.40946 0.807088L14.4095 5.47375C14.5718 5.60006 14.6668 5.79426 14.6668 5.99999V13.3333C14.6668 13.8638 14.4561 14.3725 14.081 14.7475C13.706 15.1226 13.1973 15.3333 12.6668 15.3333H3.3335C2.80306 15.3333 2.29436 15.1226 1.91928 14.7475C1.54421 14.3725 1.3335 13.8638 1.3335 13.3333V5.99999C1.3335 5.79426 1.42848 5.60006 1.59087 5.47375L7.59087 0.807088ZM2.66683 6.32605V13.3333C2.66683 13.5101 2.73707 13.6797 2.86209 13.8047C2.98712 13.9298 3.15669 14 3.3335 14H12.6668C12.8436 14 13.0132 13.9298 13.1382 13.8047C13.2633 13.6797 13.3335 13.5101 13.3335 13.3333V6.32605L8.00016 2.1779L2.66683 6.32605Z" fill="#F1F2F9"/>
<path fill-rule="evenodd" clip-rule="evenodd" d="M5.3335 8.00001C5.3335 7.63182 5.63197 7.33334 6.00016 7.33334H10.0002C10.3684 7.33334 10.6668 7.63182 10.6668 8.00001V14.6667C10.6668 15.0349 10.3684 15.3333 10.0002 15.3333C9.63197 15.3333 9.3335 15.0349 9.3335 14.6667V8.66668H6.66683V14.6667C6.66683 15.0349 6.36835 15.3333 6.00016 15.3333C5.63197 15.3333 5.3335 15.0349 5.3335 14.6667V8.00001Z" fill="#F1F2F9"/>
</symbol>

<symbol  id="arrowLeft" width="16" height="16" viewBox="0 0 16 16" fill="none" xmlns="http://www.w3.org/2000/svg">
<path fill-rule="evenodd" clip-rule="evenodd" d="M10.4715 3.52861C10.2111 3.26826 9.78903 3.26826 9.52868 3.52861L5.52868 7.52861C5.26833 7.78896 5.26833 8.21107 5.52868 8.47141L9.52868 12.4714C9.78903 12.7318 10.2111 12.7318 10.4715 12.4714C10.7318 12.2111 10.7318 11.789 10.4715 11.5286L6.94289 8.00001L10.4715 4.47141C10.7318 4.21107 10.7318 3.78896 10.4715 3.52861Z" fill="#4A4D58"/>
</symbol>

<symbol  id="arrowRight" width="16" height="16" viewBox="0 0 16 16" fill="none" xmlns="http://www.w3.org/2000/svg">
<path fill-rule="evenodd" clip-rule="evenodd" d="M5.52876 3.52861C5.78911 3.26826 6.21122 3.26826 6.47157 3.52861L10.4716 7.52861C10.7319 7.78896 10.7319 8.21107 10.4716 8.47141L6.47157 12.4714C6.21122 12.7318 5.78911 12.7318 5.52876 12.4714C5.26841 12.2111 5.26841 11.789 5.52876 11.5286L9.05735 8.00001L5.52876 4.47141C5.26841 4.21107 5.26841 3.78896 5.52876 3.52861Z" fill="#4A4D58"/>
</symbol>

<symbol id="basket" width="16" height="16" viewBox="0 0 16 16" fill="none" xmlns="http://www.w3.org/2000/svg">
<path fill-rule="evenodd" clip-rule="evenodd" d="M3.46683 0.933323C3.59273 0.765453 3.79032 0.666656 4.00016 0.666656H12.0002C12.21 0.666656 12.4076 0.765453 12.5335 0.933323L14.5335 3.59999C14.62 3.71539 14.6668 3.85574 14.6668 3.99999V13.3333C14.6668 13.8638 14.4561 14.3725 14.081 14.7475C13.706 15.1226 13.1973 15.3333 12.6668 15.3333H3.3335C2.80306 15.3333 2.29436 15.1226 1.91928 14.7475C1.54421 14.3725 1.3335 13.8638 1.3335 13.3333V3.99999C1.3335 3.85574 1.38028 3.71539 1.46683 3.59999L3.46683 0.933323ZM4.3335 1.99999L2.66683 4.22221V13.3333C2.66683 13.5101 2.73707 13.6797 2.86209 13.8047C2.98712 13.9298 3.15669 14 3.3335 14H12.6668C12.8436 14 13.0132 13.9298 13.1382 13.8047C13.2633 13.6797 13.3335 13.5101 13.3335 13.3333V4.22221L11.6668 1.99999H4.3335Z" fill="#F1F2F9"/>
<path fill-rule="evenodd" clip-rule="evenodd" d="M1.3335 4.00001C1.3335 3.63182 1.63197 3.33334 2.00016 3.33334H14.0002C14.3684 3.33334 14.6668 3.63182 14.6668 4.00001C14.6668 4.3682 14.3684 4.66668 14.0002 4.66668H2.00016C1.63197 4.66668 1.3335 4.3682 1.3335 4.00001Z" fill="#F1F2F9"/>
<path fill-rule="evenodd" clip-rule="evenodd" d="M5.33366 6C5.70185 6 6.00033 6.29848 6.00033 6.66667C6.00033 7.1971 6.21104 7.70581 6.58611 8.08088C6.96118 8.45595 7.46989 8.66667 8.00033 8.66667C8.53076 8.66667 9.03947 8.45595 9.41454 8.08088C9.78961 7.70581 10.0003 7.1971 10.0003 6.66667C10.0003 6.29848 10.2988 6 10.667 6C11.0352 6 11.3337 6.29848 11.3337 6.66667C11.3337 7.55072 10.9825 8.39857 10.3573 9.02369C9.73223 9.64881 8.88438 10 8.00033 10C7.11627 10 6.26842 9.64881 5.6433 9.02369C5.01818 8.39857 4.66699 7.55072 4.66699 6.66667C4.66699 6.29848 4.96547 6 5.33366 6Z" fill="#F1F2F9"/>
</symbol>

<symbol is="close" width="10" height="10" viewBox="0 0 10 10" fill="none" xmlns="http://www.w3.org/2000/svg">
<path fill-rule="evenodd" clip-rule="evenodd" d="M9.47157 1.4714C9.73192 1.21105 9.73192 0.78894 9.47157 0.52859C9.21122 0.268241 8.78911 0.268241 8.52876 0.52859L5.00016 4.05719L1.47157 0.52859C1.21122 0.268241 0.789108 0.268241 0.528758 0.52859C0.268409 0.78894 0.268409 1.21105 0.528758 1.4714L4.05735 4.99999L0.528758 8.52859C0.268409 8.78894 0.268409 9.21105 0.528758 9.4714C0.789108 9.73175 1.21122 9.73175 1.47157 9.4714L5.00016 5.9428L8.52876 9.4714C8.78911 9.73175 9.21122 9.73175 9.47157 9.4714C9.73192 9.21105 9.73192 8.78894 9.47157 8.52859L5.94297 4.99999L9.47157 1.4714Z" fill="#F1F2F9"/>
</symbol>

<symbol id="favorites" viewBox="0 0 16 14" fill="none" xmlns="http://www.w3.org/2000/svg">
<path fill-rule="evenodd" clip-rule="evenodd" d="M9.62852 0.631368C10.1584 0.411794 10.7264 0.298779 11.3 0.298779C11.8737 0.298779 12.4416 0.411795 12.9716 0.631368C13.5015 0.850942 13.983 1.17277 14.3885 1.57847C14.7941 1.98393 15.1158 2.46532 15.3353 2.99514C15.5549 3.52506 15.6679 4.09305 15.6679 4.66666C15.6679 5.24027 15.5549 5.80827 15.3353 6.33819C15.1158 6.86806 14.794 7.34949 14.3884 7.75497C14.3883 7.75501 14.3884 7.75493 14.3884 7.75497L8.49502 13.6483C8.22165 13.9217 7.77844 13.9217 7.50507 13.6483L1.61174 7.75497C0.792668 6.9359 0.33252 5.825 0.33252 4.66666C0.33252 3.50832 0.792668 2.39743 1.61174 1.57836C2.43081 0.759285 3.54171 0.299136 4.70005 0.299136C5.85839 0.299136 6.96928 0.759285 7.78835 1.57836L8.00005 1.79005L8.21162 1.57847C8.21158 1.57851 8.21166 1.57843 8.21162 1.57847C8.61711 1.17283 9.09865 0.850921 9.62852 0.631368ZM13.3983 2.56819C13.1228 2.29256 12.7957 2.07391 12.4357 1.92474C12.0756 1.77556 11.6898 1.69878 11.3 1.69878C10.9103 1.69878 10.5245 1.77556 10.1644 1.92474C9.80441 2.07391 9.4773 2.29256 9.2018 2.56819L8.49502 3.27497C8.22165 3.54834 7.77844 3.54834 7.50507 3.27497L6.7984 2.5683C6.24189 2.01179 5.48708 1.69914 4.70005 1.69914C3.91301 1.69914 3.15821 2.01179 2.60169 2.5683C2.04517 3.12482 1.73252 3.87963 1.73252 4.66666C1.73252 5.4537 2.04517 6.2085 2.60169 6.76502L8.00005 12.1634L13.3984 6.76502C13.674 6.48952 13.8928 6.1623 14.042 5.80228C14.1911 5.44225 14.2679 5.05637 14.2679 4.66666C14.2679 4.27696 14.1911 3.89107 14.042 3.53105C13.8928 3.17102 13.6739 2.84369 13.3983 2.56819Z" fill="#F1F2F9"/>
</symbol>

<symbol id="menu" width="16" height="16" viewBox="0 0 16 16" fill="none" xmlns="http://www.w3.org/2000/svg">
<path d="M1 4.5C1 4.08579 1.39175 3.75 1.875 3.75H14.125C14.6082 3.75 15 4.08579 15 4.5C15 4.91421 14.6082 5.25 14.125 5.25H1.875C1.39175 5.25 1 4.91421 1 4.5Z" fill="#F1F2F9"/>
<path d="M1 8C1 7.58579 1.39175 7.25 1.875 7.25H14.125C14.6082 7.25 15 7.58579 15 8C15 8.41421 14.6082 8.75 14.125 8.75H1.875C1.39175 8.75 1 8.41421 1 8Z" fill="#F1F2F9"/>
<path d="M1.875 10.75C1.39175 10.75 1 11.0858 1 11.5C1 11.9142 1.39175 12.25 1.875 12.25H14.125C14.6082 12.25 15 11.9142 15 11.5C15 11.0858 14.6082 10.75 14.125 10.75H1.875Z" fill="#F1F2F9"/>
</symbol>

< id="minus" width="12" height="2" viewBox="0 0 12 2" fill="none" xmlns="http://www.w3.org/2000/svg">
<path fill-rule="evenodd" clip-rule="evenodd" d="M0.666504 0.999995C0.666504 0.631805 0.964981 0.333328 1.33317 0.333328H10.6665C11.0347 0.333328 11.3332 0.631805 11.3332 0.999995C11.3332 1.36818 11.0347 1.66666 10.6665 1.66666H1.33317C0.964981 1.66666 0.666504 1.36818 0.666504 0.999995Z" fill="#F1F2F9"/>
</>

<symbol id="plus" width="12" height="12" viewBox="0 0 12 12" fill="none" xmlns="http://www.w3.org/2000/svg">
<path fill-rule="evenodd" clip-rule="evenodd" d="M6.6665 1.33334C6.6665 0.965149 6.36803 0.666672 5.99984 0.666672C5.63165 0.666672 5.33317 0.965149 5.33317 1.33334V5.33334H1.33317C0.964981 5.33334 0.666504 5.63182 0.666504 6.00001C0.666504 6.3682 0.964981 6.66667 1.33317 6.66667H5.33317V10.6667C5.33317 11.0349 5.63165 11.3333 5.99984 11.3333C6.36803 11.3333 6.6665 11.0349 6.6665 10.6667V6.66667H10.6665C11.0347 6.66667 11.3332 6.3682 11.3332 6.00001C11.3332 5.63182 11.0347 5.33334 10.6665 5.33334H6.6665V1.33334Z" fill="#F1F2F9"/>
</symbol>

<symbol id="search" width="16" height="16" viewBox="0 0 16 16" fill="none" xmlns="http://www.w3.org/2000/svg">
<path fill-rule="evenodd" clip-rule="evenodd" d="M2.66683 7.33334C2.66683 4.75601 4.75617 2.66668 7.3335 2.66668C9.91083 2.66668 12.0002 4.75601 12.0002 7.33334C12.0002 8.59061 11.503 9.73176 10.6945 10.5709C10.6716 10.5884 10.6497 10.6077 10.6287 10.6286C10.6078 10.6495 10.5886 10.6715 10.571 10.6943C9.73189 11.5028 8.59075 12 7.3335 12C4.75617 12 2.66683 9.91067 2.66683 7.33334ZM11.0786 12.0213C10.0522 12.8424 8.75016 13.3333 7.3335 13.3333C4.01979 13.3333 1.3335 10.6471 1.3335 7.33334C1.3335 4.01963 4.01979 1.33334 7.3335 1.33334C10.6472 1.33334 13.3335 4.01963 13.3335 7.33334C13.3335 8.75003 12.8425 10.052 12.0214 11.0785L14.4715 13.5286C14.7319 13.789 14.7319 14.2111 14.4715 14.4714C14.2112 14.7318 13.7891 14.7318 13.5287 14.4714L11.0786 12.0213Z" fill="#F1F2F9"/>
</symbol>

<symbol id="arrowUp" width="16" height="16" viewBox="0 0 16 16" fill="none" xmlns="http://www.w3.org/2000/svg">
<path fill-rule="evenodd" clip-rule="evenodd" d="M3.52876 10.4714C3.26841 10.211 3.26841 9.7889 3.52876 9.52855L7.52876 5.52856C7.78911 5.26821 8.21122 5.26821 8.47157 5.52856L12.4716 9.52856C12.7319 9.78891 12.7319 10.211 12.4716 10.4714C12.2112 10.7317 11.7891 10.7317 11.5288 10.4714L8.00016 6.94277L4.47157 10.4714C4.21122 10.7317 3.78911 10.7317 3.52876 10.4714Z" fill="#4A4D58"/>
</symbol>

<symbol id="aroowDown" width="16" height="16" viewBox="0 0 16 16" fill="none" xmlns="http://www.w3.org/2000/svg">
<path fill-rule="evenodd" clip-rule="evenodd" d="M12.4715 5.52864C12.7318 5.78899 12.7318 6.2111 12.4715 6.47145L8.47149 10.4714C8.21114 10.7318 7.78903 10.7318 7.52868 10.4714L3.52868 6.47145C3.26833 6.2111 3.26833 5.78899 3.52868 5.52864C3.78903 5.26829 4.21114 5.26829 4.47149 5.52864L8.00008 9.05723L11.5287 5.52864C11.789 5.26829 12.2111 5.26829 12.4715 5.52864Z" fill="#4A4D58"/>
</symbol>



</svg>
